<?xml version="1.0" encoding="UTF-8"?>
<svg width="614px" height="613px" viewBox="0 0 614 613" version="1.1" xmlns="http://www.w3.org/2000/svg" xmlns:xlink="http://www.w3.org/1999/xlink">
    <!-- Generator: Sketch 53.2 (72643) - https://sketchapp.com -->
    <title>logo-aumyr</title>
    <desc>Created with Sketch.</desc>
    <g id="Page-1" stroke="none" stroke-width="1" fill="none" fill-rule="evenodd">
        <g id="Artboard" transform="translate(-93.000000, -93.000000)" fill="#775200" fill-rule="nonzero">
            <g id="logo-aumyr" transform="translate(93.000000, 93.000000)">
                <path d="M613.9,305.1 C598.4,310.6 582.3,313.3 566.4,317 C560.5,318.4 554.6,319.7 548.8,321.5 C544.9,322.8 540.7,321.4 536.7,323.4 C534.9,324.3 533.4,321.1 533.5,318.5 C533.9,308.5 534.4,298.6 533.3,288.6 C532.8,284.1 535.2,283.1 539.6,283.6 C546.6,284.4 553.2,286.1 559.9,287.8 C568.4,290 577,291.9 585.6,293.9 C591.5,295.3 597.6,296.3 603.2,298.6 C606.8,300.1 612,299.2 613.9,304.1 C613.9,304.5 613.9,304.8 613.9,305.1 Z" id="Path"></path>
                <path d="M302.4,612 C300.8,609.1 301,605.4 300,602.8 C298.5,599.2 297.8,595.5 296.5,591.9 C293.6,584.2 291.5,576.1 290.8,568 C290.3,562.2 286.8,557.6 286.2,552.1 C285.9,549.4 284.6,546.9 285.7,544.1 C286,543.4 286,542.4 285.7,541.9 C284.5,540.1 282.3,537.7 283.6,536.4 C285.3,534.8 288.4,534.5 291,534.1 C298.5,532.9 306.1,532.9 313.8,533.5 C316.7,533.7 319.7,532.4 322.4,535 C323.4,535.9 324.2,536.5 323.8,537.9 C322.2,542.3 322.1,547 320.5,551.5 C318.1,558.3 317.2,565.6 315.8,572.7 C313.4,584.7 310.2,596.6 307,608.4 C306.5,610.4 303.3,609.6 303.5,612.1 C303,612 302.7,612 302.4,612 Z" id="Path"></path>
                <path d="M361.2,107.9 C365.8,108.8 370.7,109.6 374.6,111.4 C381.4,114.5 389.6,115.4 395,120.2 C399.9,124.6 406.7,124.5 411,129.3 C414.5,133.3 420.4,134 423.5,139.1 C424.6,140.9 428.6,142.3 431.1,144.1 C438.5,149.3 444.7,155.5 450.7,162.3 C453.9,166 457.8,169.2 461.2,173 C463.4,175.5 464.7,178.4 466.5,181 C467.7,182.8 468.8,184.6 470.2,186.2 C476.1,192.7 481.4,199.7 485.2,207.8 C488.4,214.5 491.9,221.1 495,227.9 C496.7,231.6 498.6,235.5 499.2,239.5 C500.2,245.8 502.8,251.6 504.3,257.7 C507,269.3 509.2,281 511.9,292.7 C512.9,297.1 511.1,301.4 511.3,305.9 C511.8,316.6 512.6,327.4 509.4,337.8 C507,345.8 506.9,354.1 503.9,362.1 C500.2,372.1 498.1,382.8 493.1,392.2 C486.9,403.6 482,416.1 473.1,425.5 C467.6,431.4 463.8,438.5 457.6,443.9 C451.8,449 446.1,454.5 440.6,460.1 C436.9,463.9 432.2,466.3 427.8,469.2 C426.1,470.3 425,472 423.2,473.2 C416.5,477.6 410,482.7 402.6,485.5 C391.2,489.9 380.7,496.3 368.5,498.9 C362.9,500.1 357.1,503.3 351.3,504.4 C344.3,505.8 337,506.6 330.1,508 C319.7,510.1 309.3,509.6 299,510.3 C289.4,511 279.5,510.1 270,507.7 C255.2,504.1 240.3,500.5 226.3,494.1 C214.1,488.6 201.9,483.1 190.7,475.7 C179.6,468.4 168.9,460.4 159.8,450.5 C156.5,446.9 153.4,443.2 149.8,439.9 C146.6,437 145.1,432.9 142.3,429.8 C136.1,423 131.8,414.8 126.7,407.1 C124.4,403.6 122.9,399.6 121.8,395.5 C120.8,391.7 117.2,389.2 116.6,385.1 C115.5,377 111.7,369.7 109.4,361.9 C107.1,354.2 107,346.2 104.6,338.5 C103,333.2 102.9,327.3 103.3,321.5 C103.9,311.3 103.5,301.1 103.4,290.9 C103.3,285.3 102.3,279.3 105.4,274 C106.7,271.8 106.3,269.2 106.7,266.8 C108.1,258.7 109.4,250.7 113.3,243.3 C114.9,240.3 113.8,236.5 115.3,233.5 C119.7,224.8 121.5,215.1 126.7,206.7 C132,198.2 135.8,188.9 142.1,181.1 C145.8,176.4 150.7,172.4 153.9,167.8 C159.5,159.9 167.5,155 173.9,148.2 C178.7,143.1 184.5,138.8 190.4,135.8 C194.7,133.6 196.4,129.1 200.9,127.6 C203.1,126.9 204.7,124.3 207.5,125.4 C207.9,125.5 208.5,125.5 208.8,125.2 C218.2,115.4 230.9,112.6 243.1,108.5 C251,105.8 258.9,104.1 267,102.8 C272.6,102 272.5,101.9 276.6,107.6 C242.8,113.9 211.9,127.3 186.6,149.9 C147.9,184.5 127.2,228.9 124,281 C123.7,285.4 122.8,290 125.4,294.6 C130.6,286.3 134.9,277.8 140.6,270.4 C150.5,257.6 160.6,244.5 174.1,235.3 C180.7,230.8 187.6,226.3 196.5,225.2 C203.6,224.3 210.8,221.7 218,220.8 C227.2,219.6 236.5,219.8 245.7,221.7 C252.1,223.1 258.6,223.5 264.8,225.8 C273.5,229.1 282,232.5 290.5,236.5 C296,239 301.8,240.8 308,241.1 C319.2,241.7 330.1,240.5 340.9,237.8 C343.3,237.2 345.7,237.1 348.3,238 C347.9,239.6 346.4,240.7 346.8,242.6 C347,243.6 345.3,244.1 344.9,245 C343.2,248.5 339.1,240.2 337.8,246.7 C337,250.7 332.3,249.5 329.4,250.7 C326.5,251.9 323.4,252.8 320.1,252.6 C317.2,252.4 316.9,254 318,256.5 C320.7,262.4 324.7,267.4 328.1,272.8 C336.2,285.4 343,298.5 345.4,313.6 C346.6,321.1 348.8,328.6 348.1,336.3 C347.3,345.7 347.3,355.1 343.8,364.2 C342.2,368.4 341.7,373 339.7,377.1 C336.3,383.8 333.3,390.8 329.4,397.3 C328.2,399.3 326,400.1 324.3,401.6 C318.7,406.8 318.9,415.3 312.6,420.3 C307,424.8 302.4,430.6 297.4,435.8 C296.2,437 295.2,436.2 294.4,435.2 C293.4,433.9 291.6,432.5 293.6,431 C299,427.2 300.4,420.4 305.3,416.1 C310,411.9 312.2,405.5 317.2,401.4 C318.6,400.2 318.1,397.4 319.3,395.5 C325.8,385 329.7,373.3 330.6,361.2 C331.2,352.2 332.3,343.3 330.3,333.8 C327.7,321.7 324.7,310 318.6,299.3 C312.1,287.9 304.6,277.3 294.4,268.6 C279.1,255.6 261.9,248.8 241.8,248.9 C231,249 220.2,248.6 209.8,252.4 C206.2,253.7 203.2,256 199.7,257.6 C184.6,264.4 174.7,276.9 165.3,289.8 C159.3,298 155.5,307.4 151.2,316.7 C146,327.9 144.6,339.4 144.9,351.5 C145,358.1 144.1,364.8 144.8,371.1 C145.7,378.7 148.6,386 152.4,392.9 C156.4,400.1 161.1,406.9 166.4,413.1 C172.2,419.9 179.2,425.6 185.7,431.8 C189.2,435.2 192.8,438.7 196.5,441.8 C199.7,444.5 203.7,447.2 207.4,449.6 C212.6,453 217.7,456.7 223.8,458.5 C224.6,458.7 225.3,460 226.2,459.3 C227.3,458.5 226.7,457.4 226.3,456.4 C223.5,450.5 220.5,444.6 218.1,438.6 C214.4,429.6 209,421.4 204.7,412.6 C202.5,408.1 198.8,404.2 196.5,399.6 C192,390.4 185.7,382.3 182.5,372.2 C179.3,362 176.3,351.7 176.8,341.2 C177.2,332.3 175.5,323 178.5,314.5 C180.3,309.3 179.9,303.7 182.8,298.9 C183.3,298 183.6,296.6 184.7,296.6 C186.3,296.6 186.5,298.3 186.5,299.4 C186.6,303.9 187.4,308.3 187.1,312.9 C186.8,316.3 182.3,317.1 183.6,320.6 C179.4,321.4 182.3,325.2 180.1,327.6 C182.7,327.3 182.9,323.9 185.1,325.4 C186.7,326.5 186.3,328.5 186.3,330.1 C186.3,341.6 191.4,351.6 195.7,361.8 C196.6,364 198.5,365.8 199.9,367.7 C200.3,368.2 200.9,368.7 201.4,368.2 C201.8,367.9 202.1,367.2 202,366.6 C200.7,353.2 203.1,339.9 204,326.6 C204.6,318.2 207.8,310.5 210.7,302.6 C212.7,297.3 214.2,291.8 216.5,286.5 C218.2,282.6 219.6,278.6 222.4,275.2 C224.4,272.7 223.5,268.7 225.9,266.1 C226.6,265.3 226.9,264.2 227.4,263.3 C233.2,252 237.6,250 250,253 C250.7,253.2 251.8,253.1 252.2,253.6 C254.2,256.3 261.8,249.8 260,258.1 C259.2,261.5 259,265.1 256.3,268.4 C252.6,273 250.5,279 248.1,284.5 C243,296.3 238.6,308.4 235.7,321 C234.9,324.6 234.1,328.4 234.3,332 C234.6,338.2 230.7,343.8 232.1,349.9 C233.5,356.3 234.1,362.7 233.6,369.3 C233.1,375 232.1,380.7 234.3,386.3 C236,390.7 236.8,395.4 238.4,399.9 C240.1,404.7 242.4,409.3 244.1,414 C247.2,422.8 252.6,430.1 257.3,438 C262.4,446.4 270,452.8 275.1,461.1 C276.5,463.4 280.3,464.4 282.9,466.3 C289.6,471.2 297.4,473 305.5,474.3 C315.2,475.8 324.6,473.9 333.7,471.9 C341.1,470.3 348.5,467.6 355.4,464.1 C359.9,461.8 364.5,459.5 369,457.3 C372.8,455.4 376.8,452.2 379.7,448.8 C382.5,445.6 385.4,442.3 387.8,438.6 C395.8,426.8 394,416.3 384.9,406.9 C381.9,403.8 376.4,403.3 371.6,404.5 C361.5,407 353.9,413.2 347.3,421 C340.6,428.9 338,438.1 338.1,448.2 C338.1,450.6 336.8,452.7 334.4,452.6 C331.6,452.5 329.7,450.2 329.4,447.4 C328.9,443 328.6,438.6 329,434.2 C329.8,425.8 331.7,417.4 336.7,410.7 C341.5,404.3 345.7,397.2 354.4,394 C358.7,392.4 362.4,388.4 367.5,387.3 C378.4,385 389,386.4 399.5,389.3 C403.2,390.3 404.8,389.4 404.4,385.7 C403.5,376.4 404.3,366.9 400.5,357.8 C399.1,354.5 397.3,351.5 395.5,348.8 C390.3,340.9 384.3,333.8 375.2,329.5 C369.3,326.8 363.2,325.9 357.2,324.3 C354.8,323.6 352.2,322 351.3,319.5 C349.2,313.3 347.3,307 345.8,300.7 C344.6,295.5 347.7,292.3 352.7,292.9 C359,293.7 365.4,294.1 371.6,296 C377.4,297.8 380.1,295.7 381.3,287.5 C381.9,283.4 384,280.4 386.1,277.3 C389.3,272.7 403,270.1 407.6,273.3 C410.8,275.5 415.1,275.6 417.4,279.3 C420.6,284.6 426.1,288.2 428.2,294.3 C429.3,297.3 428.5,300.5 428.3,303.6 C428.1,305.7 427.4,307.6 429.7,309.3 C431.3,310.4 431.1,312.5 429.4,313.6 C427.8,314.6 425.9,314.3 425.3,312.2 C424.1,307.7 420.6,303.9 421,298.9 C421,298.4 420.8,297.4 420.4,297.3 C415.8,295.9 413.8,291.2 409.6,289.2 C406.9,287.9 404,287.3 401.8,289.2 C399.8,290.9 398.6,293.6 399.5,296.6 C401.8,304.2 405,311.2 408.9,318.1 C412.5,324.6 416.9,330.6 420,337.4 C421.5,340.6 422.8,344.4 425.3,347.4 C428,350.7 427.8,355.5 429.8,359.5 C431.3,362.6 431.2,366.6 432.4,370.1 C433.6,373.7 433.7,377.4 432.8,381.3 C431.4,387 434.2,392.7 432.9,398.5 C430.7,407.8 429.8,417.3 426.7,426.4 C425.8,429 425.2,431.6 425.2,434.4 C431.7,431.9 435,425.7 440,421.5 C444.9,417.3 449.1,412.2 452.2,406.9 C454.6,402.6 457.9,398.3 458.3,392.7 C458.7,386.8 459.5,380.8 461.4,375 C462.1,372.8 461.4,370.5 461.4,368.2 C461.1,360.3 460.9,352.3 461.3,344.4 C461.5,341.3 462,338.4 460.1,335.7 C459.5,334.9 459.1,333.7 459.1,332.7 C458.8,327.1 457.3,321.9 455.8,316.5 C453.7,308.7 449.4,302.2 445.5,295.6 C439.7,285.8 431.5,277.9 423.4,269.9 C417.7,264.3 412.2,258.2 406.1,253.1 C394.4,243.5 381.2,235.9 368.5,227.5 C359,221.2 348.8,216.3 338.3,211.8 C334.6,210.2 330.6,208.9 326.9,207 C325,206.1 323.4,204.6 323.1,202.7 C322.7,200.5 325.2,200.4 326.6,199.8 C328.2,199 329.6,198.1 331.1,196.9 C336.1,192.7 342.1,192.8 347.5,194.9 C355.4,198 362.9,202.1 370.4,206 C375.3,208.5 380.6,210.4 384.6,214 C388.7,217.7 393.8,219.3 398.1,222.6 C403,226.3 408.7,229.5 413.3,233.5 C419.2,238.5 426.4,241.9 431.3,248 C436.6,254.6 443.8,259.3 448.9,266.1 C450.1,267.7 453.2,269.9 454.2,269.4 C456.5,268.2 453.9,266 453.6,264.3 C451.1,252.4 443.6,243.3 436.7,233.9 C433,228.9 428.4,224.5 424.7,219.7 C418.1,211 408.6,206.9 399.8,201.6 C395.8,199.2 395.1,196.9 397.8,193.1 C398.5,192.1 399.5,192.2 400.2,192.6 C408.8,197.5 418,201 426.3,206.9 C433.5,212.1 440.5,217.4 446.6,223.6 C450.2,227.2 454,230.8 455.6,236.4 C456.3,238.8 459.5,241.2 461.2,243.9 C465.7,251 469.3,258.4 472,266.4 C473.4,270.6 475,274.8 476.9,278.9 C479.1,283.7 479.9,289.4 480.8,294.7 C481.8,300.3 482.8,306 483.3,311.8 C484,320.7 483.3,329.8 484.9,338.6 C485,339.2 484.8,339.8 485.8,340.2 C488.3,332.7 489.2,324.8 490,317.1 C491.4,303.8 490.6,290.3 490.9,276.9 C491,269.4 488.7,262.5 487.5,255.6 C486.1,247.8 483.7,239.5 480.4,232.1 C478,226.7 476.5,220.8 472.9,215.9 C470,212 469.5,206.9 466.6,202.8 C462.8,197.3 459.6,191.4 455.8,185.8 C450.5,177.8 443.8,171.3 437.5,164.2 C433.2,159.3 427.5,155.5 423,150.7 C416.2,143.5 406.8,139.8 399.1,133.9 C394.2,130.2 387.7,127.8 381.9,125 C375.9,122.1 369.9,119.5 363.5,117.6 C362.2,117.2 360.8,115.9 361.6,115.1 C364.2,112.6 361.2,111.2 361,109.4 C360.9,108.2 361.1,108.1 361.2,107.9 Z" id="Path"></path>
                <path d="M289.6,122.8 C306.8,125 325.2,128.1 339.9,141.1 C343.7,144.5 347.6,148.1 350.3,153 C353.5,158.8 358.7,162.6 366,163.2 C373.4,163.9 381,162.7 388.2,165.2 C395.2,167.7 402.3,169.9 409.4,172 C418.1,174.6 425.1,179.5 432.2,184.7 C433.5,185.6 435.7,186.3 434.5,188.4 C433.6,190 432,191.1 429.8,190.2 C420.7,186.4 411,184.7 401.7,181.8 C397.1,180.4 392.4,179.9 387.8,179.7 C374.4,178.9 361.3,180.6 348.5,185.3 C338.8,188.9 329.4,193.1 320.4,198 C315.6,200.6 310.9,204.2 306.3,207.7 C300.7,212 294,215.1 288.8,219.9 C278.3,229.4 268.7,222.3 258.9,219 C257.6,218.6 258.1,214.2 260.1,212.8 C266.1,208.4 272.2,204 278.7,200.5 C285.1,197 291,192.8 297.2,189 C308,182.5 318.7,176 330.3,171 C336.6,168.3 337.1,166.3 332.9,161 C330.4,157.7 328.5,154 325.9,150.8 C324.4,148.9 321.9,147.8 320,146.1 C312.1,139 303.9,132.5 292.8,131.5 C289.1,131.1 286.1,127.5 281.7,129.5 C280.1,130.2 279.1,128.6 279.9,126.6 C281.7,122.9 284.7,122.4 289.6,122.8 Z" id="Path"></path>
                <path d="M322.7,321.9 C322.4,322.5 322.2,323.5 321.6,323.8 C318.1,325.2 316.3,328.8 312.3,329.8 C303.3,332 295.3,336 288.1,342 C277.5,351 272.6,362.7 271.7,376.1 C271.2,383.6 272.6,391.3 275.3,398.5 C275.8,399.9 276.5,401.6 274.8,402.6 C273.5,403.3 271.8,403.4 270.5,402.2 C269.2,401.1 267.9,399.6 268.7,397.9 C270,395.2 271.3,393.1 266.5,393.7 C265.5,393.8 264.9,392.9 264.8,391.9 C264.2,387.1 261.7,382.8 261.6,377.8 C261.4,371 259.4,364.4 259.9,357.5 C260.2,353.2 260.4,349 262.8,345.2 C263.8,343.6 264,341.7 263.9,339.9 C263.8,338.3 264.1,336.8 264.8,335.5 C269.4,327.2 273.6,318.7 280.5,311.9 C286,306.5 292.7,303.5 299.6,300.6 C302.3,299.5 305.1,298.8 307.9,298 C311.3,297.1 314.4,299.2 315.9,302.3 C318.6,307.9 320.7,313.6 321.7,319.7 C322,320.3 322.4,321 322.7,321.9 Z" id="Path"></path>
                <path d="M182.4,199.2 C178.8,195.8 180.5,194.7 183,192.9 C190.9,187.2 199.6,183.4 208.4,179.7 C231.1,170.1 254.9,169.4 279.1,170.8 C286.2,171.2 292.7,174.6 299.9,174.1 C301.3,174 301.6,175.1 302.2,176.8 C305,184.2 297.9,184.3 295.2,186.5 C291.7,189.3 286.9,192 281.8,188.4 C280.7,187.7 279.4,188 278.2,188.2 C272.2,189.3 266.4,188 260.5,187.4 C258.2,187.2 256,187 253.7,186.9 C240.2,186.7 226.8,186.5 213.3,189 C208.3,189.9 204.9,192.8 200.5,194.2 C195.5,195.8 191.3,199.9 186.3,201.3 C179.5,203.3 177.1,210.2 171.3,213 C165,216 161.3,223 153.9,224.2 C153,224.3 152.1,225.2 151.4,224.2 C150.7,223.3 151.6,222.6 152.1,221.8 C157.8,213.2 165.5,206.5 173.1,199.8 C175.8,197.8 178.5,198.1 182.4,199.2 Z" id="Path"></path>
                <path d="M302.5,0.4 C303.9,2.2 302.9,4 303.7,5.7 C305.4,3.9 306.7,2.9 307.5,6.4 C309.1,13.2 311.5,19.7 312.2,26.7 C312.6,31 314.4,35.1 315.6,39.4 C315.6,39.5 315.8,39.7 315.8,39.8 C316.6,50.7 322,60.5 323.2,71.3 C323.9,77.8 321.5,80.8 315.2,80.7 C305.9,80.5 296.7,80.1 287.4,80.1 C282.9,80.1 282.2,77.5 283,74.1 C286.1,61.7 287.3,48.7 292.9,37.1 C294.2,34.5 292.7,31.9 293.7,29.5 C296.3,23.6 296,16.9 299.2,11.1 C300.2,9.4 300.3,7.3 300.3,5.3 C300.4,3.6 300.4,1.7 302.5,0.4 Z" id="Path"></path>
                <path d="M79.9,303.2 C79.5,308.2 79.1,313.2 78.8,318.2 C78.6,320.6 77.4,321.4 75,321.8 C69.1,322.9 63.5,322 57.9,320.4 C40.9,315.4 23.5,311.7 6.3,307.4 C5.1,307.1 3.9,306.8 2.8,306.4 C1.3,305.9 0.1,305.4 0.2,303.3 C0.2,301.2 1.3,300.3 3,299.7 C8.5,297.9 14.2,296.9 19.8,295.6 C31.9,292.9 43.8,289.4 56,287.4 C62.1,286.4 68,283.2 74.6,284.4 C77.2,284.9 78.4,285.9 78.6,288.4 C78.8,293.5 80.1,298.3 79.9,303.2 Z" id="Path"></path>
                <path d="M520.8,226.2 C520.7,221.3 525.3,220.3 528,219.5 C535.8,217.1 544,215.9 552,214.4 C553.1,214.2 554.7,213.8 555.2,215.3 C555.7,216.8 555.4,218.3 554.4,219.6 C552.5,221.9 550.1,223.4 547.7,225.1 C542.5,228.8 537.5,232.6 532.2,236.1 C528.1,238.9 525.7,237.9 524.1,233.3 C523.7,232.1 522.7,231 521.9,229.9 C521.1,228.8 520,227.7 520.8,226.2 Z" id="Path"></path>
                <path d="M226.5,519.2 C228.6,521.6 232.3,520.3 235.2,521.5 C239.5,523.3 240.4,525.8 237.7,529.6 C233.9,534.8 229.8,539.9 225.8,545 C224.6,546.6 223.4,548.1 222.1,549.6 C221,550.9 220.2,552.8 218,552.8 C218,550.5 214.9,549.4 215.5,546.9 C216.2,543.7 216.3,540.4 217.9,537.2 C219.5,534.1 220.7,530.6 220,526.7 C219.3,522.7 222.4,519.1 226.5,519.2 Z" id="Path"></path>
                <path d="M393.8,67.7 C393.5,75.1 391,82.1 389.4,89.2 C388.8,91.8 383.6,94.3 381.3,93 C378.8,91.7 376.2,91.2 373.7,90.1 C370.9,88.9 369.9,86.4 371.7,84.2 C377.1,77.6 380.1,69.2 387.1,63.9 C388.3,63 389.3,60.6 391.1,61.9 C392.7,63.2 394.3,65.1 393.8,67.7 Z" id="Path"></path>
                <path d="M387.7,543.4 C390.1,544.2 392,544.5 393.2,546.2 C394.2,547.6 394.6,549.1 393.3,550.3 C392.1,551.4 390.4,551.7 389.1,550.4 C382.4,543.8 376.4,536.4 371.7,528.2 C370.4,525.8 372.6,523.6 374.8,522.5 C376.7,521.5 378.8,521 380.8,520.2 C385,518.4 388.9,519.8 389.4,524.2 C390,528.7 391.9,532.9 392.5,537.4 C393.1,541.1 394.2,544.5 387.7,543.4 Z" id="Path"></path>
                <path d="M528.5,372.5 C531.7,374.1 535.1,375.4 538.1,377.2 C542.3,379.8 545.9,383.4 549.5,386.9 C551.4,388.7 550.6,391.3 550.4,393.1 C550.2,394.9 547.6,393.7 546,393.4 C538.6,392 531.1,391.2 524,388.3 C520,386.6 517.4,384.9 520.9,380.4 C521.6,379.5 521.8,378.2 522.3,377.1 C523.5,374.6 524.2,371.4 528.5,372.5 Z" id="Path"></path>
                <path d="M67.6,213.1 C73.2,214.9 79.4,214.3 84.8,216.5 C87.7,217.7 92,219 92.5,222.7 C93.1,226.7 90.8,230 88,233.3 C85,236.9 83.1,235.5 80.9,233.4 C77.3,230 72.3,228.4 69.8,223.6 C69.2,222.4 67.1,221.9 65.6,221.1 C63.4,220 62.1,218.6 62.8,215.7 C63.5,212.9 65.2,212.8 67.6,213.1 Z" id="Path"></path>
                <path d="M227.3,93 C223.3,92.3 221,91.8 220.8,87.4 C220.6,83.2 218.4,79.1 217.4,74.9 C216.4,70.8 213.8,66.7 218,62.7 C219.7,61.1 220.6,61.2 222.1,62.7 C227.9,68.3 231.7,75.4 236.2,82 C237.5,83.9 236,86.1 236,88.3 C236,91.4 233.4,91.2 231.3,90.8 C229.1,90.4 229.3,95.3 227.3,93 Z" id="Path"></path>
                <path d="M67.2,389.8 C65.6,389.3 63,391.3 62.6,387.9 C62.3,385.2 63.6,384 66,383.5 C66.8,383.3 67.3,383 67.6,382.2 C69.6,376.9 74.8,375.1 79.1,372.5 C80.3,371.8 81.5,371.6 82.6,370.3 C84.3,368.3 86.9,368.5 88.9,370.6 C89.2,370.9 89.3,371.4 89.6,371.8 C95.9,383 93.8,386.9 80.9,387.8 C76.3,388.1 72.1,391 67.2,389.8 Z" id="Path"></path>
                <path d="M360.8,108.4 C360.6,108.4 360.4,108.4 360.4,108.5 C354.4,116.4 347.6,111.3 340.8,110 C337.3,109.3 333.6,109.9 330,109.3 C327.8,108.9 326,108.7 326.4,105.9 C326.6,104.3 325.8,103.6 324.4,103.6 C322.3,103.5 320.1,103.5 318,103.5 C314.5,103.5 311.1,103.5 307.5,104.2 C309.7,105.7 312.1,105.4 314.4,105 C316.8,104.5 319.2,104.3 321.7,104.5 C323.1,104.6 324.8,104.9 324.8,106.6 C324.8,108.6 322.9,108.1 321.6,108.2 C313.6,108.6 305.9,107.1 297.8,104.9 C300.3,102.8 302.6,101.4 305.9,101.5 C316.8,101.7 327.8,101.2 338.7,102.6 C340,102.8 341.5,102.5 342.2,104.4 C339,106.4 335.4,106.4 331.8,106.9 C337.2,105.8 343.1,108.6 348.3,104.9 C348.8,104.6 349.8,104.8 350.5,104.9 C354.1,105.8 357.6,106.8 361.2,107.8 C361.1,108.1 360.9,108.2 360.8,108.4 Z" id="Path"></path>
            </g>
        </g>
    </g>
</svg>